<?xml version="1.0" encoding="utf-8"?>
<!-- Generator: Adobe Illustrator 18.0.0, SVG Export Plug-In . SVG Version: 6.00 Build 0)  -->
<!DOCTYPE svg PUBLIC "-//W3C//DTD SVG 1.1//EN" "http://www.w3.org/Graphics/SVG/1.1/DTD/svg11.dtd">
<svg version="1.1" id="Layer_1" xmlns="http://www.w3.org/2000/svg" xmlns:xlink="http://www.w3.org/1999/xlink" x="0px" y="0px"
	 viewBox="0 0 595.3 241.9" enable-background="new 0 0 595.3 241.9" xml:space="preserve">
<g>
	<path fill="#E30613" d="M318.8,99.7c0.9-1.1,1.4-2.5,1.4-4.1c0-1.6-0.4-3.1-1.2-4.2c-1.6-2.5-4.1-2.7-7.6-2.7h-15.6v14.1H309
		C312.4,102.7,316.4,102.7,318.8,99.7z"/>
	<path fill="#E30613" d="M285.6,84.9c2.1-1,4.2-1.9,6.3-2.9C289.8,82.9,287.7,83.9,285.6,84.9z"/>
	<path fill="#E30613" d="M440.8,134.5l-6.1-13.2h-29.5l-6.2,13.4h-13.4l27.5-54.9h15.2l26,53.3c-1.1,0.1-2.3,0.2-3.4,0.4
		c28.4-3,57.3-5.8,87.1-8.4c-40.7-36.5-82-66.5-127.4-93.1c-36,13.5-74.4,29.8-113.9,47.9h15.7c4.6,0.1,10,0.2,14.8,4.4
		c1.9,1.6,5.2,5.3,5.2,11.9c0,7.5-4.3,12.8-11.7,14.7c4.1,6.5,11.7,19.8,14,24h-14.9c-2.6-5-11.2-21.8-12.3-23.2h-11.9v23.2h-12.5
		V86c-80.8,37.6-165.5,82.2-243.4,125c157.4-43.9,277.3-63.3,405.7-77.1C444,134.2,442.4,134.3,440.8,134.5z M373.5,134.7h-12.6
		V89.3h-21.3v-9.5h55.4v9.5h-21.4V134.7z"/>
	<polygon fill="#E30613" points="409.8,111.7 430.4,111.7 420.6,89.9 	"/>
</g>
</svg>
